<svg width="41" height="38" viewBox="0 0 41 38" fill="none" xmlns="http://www.w3.org/2000/svg">
<path d="M35.175 36H6.14688C3.85662 36 2 34.1434 2 31.8531V13.1921C2 10.9019 3.85662 9.04526 6.14688 9.04526H35.175C37.4653 9.04526 39.3219 10.9019 39.3219 13.1921V31.8531C39.3219 34.1434 37.4653 36 35.175 36Z" stroke="#E3DEDE" strokeWidth="3"/>
<path d="M29.9913 23.5593C29.4188 23.5593 28.9546 23.0951 28.9546 22.5226C28.9546 21.9501 29.4188 21.4859 29.9913 21.4859C30.5638 21.4859 31.028 21.9501 31.028 22.5226C31.028 23.0951 30.5638 23.5593 29.9913 23.5593Z" fill="black" stroke="#E3DEDE" strokeLinecap="round" strokeLinejoin="round"/>
<path d="M33.1016 9.04528V6.14914C33.1016 3.42452 30.5189 1.44026 27.8863 2.14228L5.07837 8.22438C3.26308 8.70847 2 10.3525 2 12.2312V13.1922" stroke="#E3DEDE" strokeWidth="3"/>
</svg>
