<svg width="22" height="21" viewBox="0 0 22 21" fill="none" xmlns="http://www.w3.org/2000/svg">
<path d="M15.6579 0C13.9436 0 12.2502 0.691095 11 1.87654C9.75035 0.691167 8.05646 0 6.34146 0C2.78552 0 0 2.78577 0 6.34204C0 8.33232 0.819644 10.2571 2.57943 12.3995C4.11465 14.2685 6.25203 16.2 9.10254 18.7224L10.539 20.1524C10.6665 20.2793 10.8333 20.3428 11.0001 20.3428C11.167 20.3428 11.3337 20.2793 11.4613 20.1524L12.8974 18.7224C15.7477 16.2006 17.8848 14.2695 19.4209 12.3995C21.1805 10.2572 22 8.33243 22 6.34204C22 2.78577 19.2143 0 15.6579 0Z" fill="#E3DEDE"/>
</svg>
