<svg width="22" height="21" viewBox="0 0 22 21" fill="none" xmlns="http://www.w3.org/2000/svg">
<path d="M15.6579 0C13.9436 0 12.2502 0.691095 11 1.87654C9.75035 0.691167 8.05646 0 6.34146 0C2.78552 0 0 2.78577 0 6.34204C0 8.33232 0.819644 10.2571 2.57943 12.3995C4.11465 14.2685 6.25203 16.2 9.10254 18.7224L10.539 20.1524C10.6665 20.2793 10.8333 20.3428 11.0001 20.3428C11.167 20.3428 11.3337 20.2793 11.4613 20.1524L12.8974 18.7224C15.7477 16.2006 17.8848 14.2695 19.4209 12.3995C21.1805 10.2572 22 8.33243 22 6.34204C22 2.78577 19.2143 0 15.6579 0ZM12.0167 17.7562C12.0071 17.7646 11.9978 17.7734 11.9886 17.7825L11 18.7669L10.0111 17.7825C10.0021 17.7734 9.99271 17.7647 9.98311 17.7562C4.44213 12.8531 1.30717 9.9055 1.30717 6.34204C1.30717 3.51871 3.51845 1.3072 6.3415 1.3072C7.89408 1.3072 9.48804 2.05114 10.5011 3.24874C10.6252 3.39548 10.8078 3.4801 11 3.48017C11 3.48017 11 3.48017 11.0001 3.48017C11.1923 3.48017 11.3748 3.39551 11.499 3.24881C12.5126 2.05118 14.1062 1.30724 15.658 1.30724C18.4812 1.30724 20.6928 3.51874 20.6928 6.34208C20.6928 9.90665 17.5579 12.8538 12.0167 17.7562Z" fill="#E3DEDE"/>
</svg>
