<svg width="25" height="25" viewBox="0 0 25 25" fill="none" xmlns="http://www.w3.org/2000/svg">
<path opacity="0.4" d="M24.1921 18.0031L20.4848 9.33296C19.8096 7.74581 18.8029 6.84564 17.6539 6.78642C16.5169 6.7272 15.4154 7.52077 14.5744 9.03685L12.324 13.0758C11.8502 13.9286 11.1751 14.4379 10.4407 14.4971C9.69455 14.5682 8.94835 14.1773 8.34429 13.4075L8.08371 13.0758C7.24276 12.0217 6.20045 11.5124 5.13446 11.619C4.06846 11.7256 3.15644 12.4599 2.55238 13.6562L0.503295 17.7425C-0.231057 19.2231 -0.159991 20.9405 0.70465 22.3381C1.56929 23.7358 3.07353 24.5767 4.7199 24.5767H19.8333C21.4205 24.5767 22.901 23.7832 23.7775 22.4566C24.6777 21.13 24.8198 19.4599 24.1921 18.0031Z" fill="#ADAFBB"/>
<path d="M6.36528 8.0068C8.57631 8.0068 10.3686 6.21441 10.3686 4.00339C10.3686 1.79236 8.57631 -1.71661e-05 6.36528 -1.71661e-05C4.15427 -1.71661e-05 2.36188 1.79236 2.36188 4.00339C2.36188 6.21441 4.15427 8.0068 6.36528 8.0068Z" fill="#ADAFBB"/>
</svg>
