<svg width="295" height="73" viewBox="0 0 295 73" fill="none" xmlns="http://www.w3.org/2000/svg">
<path d="M17.5569 10.1C14.7569 10.1 12.5169 7.79 12.5169 5.06C12.5169 2.26 14.7569 0.0199968 17.5569 0.0199968C20.3569 0.0199968 22.5969 2.26 22.5969 5.06C22.5969 7.79 20.3569 10.1 17.5569 10.1ZM21.4069 14.16H26.7969V15.42C23.0169 15.42 22.6669 17.59 22.6669 22.63V58.33C22.6669 66.24 21.1269 72.05 11.3969 72.05C0.126875 72.05 1.31687 61.9 6.35687 61.9C12.0269 61.9 6.91687 69.74 11.3269 69.74C12.7269 69.74 12.5869 67.43 12.5869 65.61V25.64C12.5869 18.71 11.6769 14.16 21.4069 14.16ZM55.3459 26.9V42.65C55.4159 45.94 56.2559 48.74 60.0359 48.74V50H55.4159C46.5959 50 45.3359 44.61 45.3359 38.31L45.4059 25.85C45.4059 30.82 38.6859 33.62 37.5659 38.66C36.8659 41.67 38.8259 43.77 41.1359 43.77C41.9759 43.77 42.8159 43.42 43.7959 42.86V45.66C30.0759 56.58 22.9359 43.56 30.8459 36.07C35.6759 31.52 44.3559 28.79 45.4059 23.33C45.4059 19.9 44.7059 16.89 40.7159 16.89C38.4059 16.89 33.9959 18.08 36.9359 21.44C41.4159 26.48 34.0659 31.31 29.7259 27.39C25.8059 23.82 29.5159 16.33 39.3159 14.44C47.9959 12.83 55.3459 17.73 55.3459 26.9ZM77.5977 38.52C77.5977 44.75 76.2677 50 67.3777 50H62.8277V48.74C66.6077 48.74 67.4477 46.01 67.4477 42.79V21.37C67.4477 18.15 66.6077 15.42 62.8277 15.42V14.16H69.2677C75.6377 14.16 77.1777 15.91 77.5277 19.62C80.4677 16.47 83.4077 14.16 87.8877 14.16C92.2977 14.16 95.1677 16.19 96.7777 20.25C99.7177 16.96 103.218 14.16 107.908 14.16C111.898 14.16 115.048 15.91 116.378 19.83C117.708 23.89 117.008 35.86 117.218 42.79C117.288 46.01 117.008 48.74 120.788 48.74V50H116.238C107.348 50 107.068 44.75 107.068 38.52C107.068 35.44 107.278 23.26 106.718 21.3C106.228 19.83 105.318 18.85 103.708 18.85C101.048 18.85 98.8077 21.44 97.3377 23.4V42.72C97.3377 46.57 97.4777 48.53 101.118 48.74V50H83.6877V48.74C87.3277 48.6 87.1877 45.8 87.1877 42.72C87.1877 39.71 87.3977 23.12 86.8377 21.23C86.4177 19.9 85.2977 18.78 83.8277 18.78C81.0277 18.78 79.0677 21.3 77.5977 23.4V38.52ZM138.229 41.39C138.229 47.27 144.249 48.53 146.839 46.43C150.969 43.21 150.829 24.66 148.029 20.53C145.999 17.52 142.639 17.94 139.839 20.32V17.24C148.939 9.96 160.699 16.68 160.699 30.75C160.699 47.2 146.279 53.92 137.039 47.9C135.569 49.3 133.119 50.07 129.269 50.07H123.599V48.81C127.449 48.81 128.219 46.08 128.289 42.86V7.02C128.289 3.45 128.429 1.42 124.299 1.28V0.0199968H130.389C134.729 0.0199968 138.229 3.52 138.229 7.86V41.39ZM180.111 14.16C189.281 14.16 196.701 22.21 196.701 32.15C196.701 42.02 189.281 50.07 180.111 50.07C170.941 50.07 163.521 42.02 163.521 32.15C163.521 22.21 170.941 14.16 180.111 14.16ZM180.111 47.48C183.751 47.48 186.691 40.62 186.691 32.15C186.691 23.61 183.751 16.75 180.111 16.75C176.471 16.75 173.531 23.61 173.531 32.15C173.531 40.62 176.471 47.48 180.111 47.48ZM210.955 38.8C210.955 45.73 211.795 50.07 202.065 50.07H196.675V48.81C200.455 48.81 200.805 46.29 200.805 42.79V21.44C200.805 17.94 200.455 15.42 196.675 15.42V14.16H202.065C210.325 14.16 210.955 17.52 210.955 22.84C213.825 18.22 217.115 14.16 221.595 14.16C227.895 14.16 227.125 24.03 222.015 24.03C217.955 24.03 217.465 19.34 214.315 22C211.235 24.66 210.955 32.64 210.955 38.8ZM246.632 44.26C249.362 44.33 253.282 43 255.522 40.55L256.292 41.11C248.312 56.09 226.822 51.4 226.822 32.71C226.822 14.93 244.112 10.45 251.112 16.96C262.102 27.11 243.412 31.17 240.752 38.17C240.332 37.4 239.982 36.63 239.632 35.79C241.452 31.24 245.792 27.46 244.322 20.04C243.972 18.29 243.412 16.89 241.452 16.89C233.892 16.89 234.872 43.77 246.632 44.26ZM278.898 44.26C281.628 44.33 285.548 43 287.788 40.55L288.558 41.11C280.578 56.09 259.088 51.4 259.088 32.71C259.088 14.93 276.378 10.45 283.378 16.96C294.368 27.11 275.677 31.17 273.018 38.17C272.598 37.4 272.248 36.63 271.898 35.79C273.718 31.24 278.058 27.46 276.588 20.04C276.238 18.29 275.677 16.89 273.718 16.89C266.158 16.89 267.138 43.77 278.898 44.26Z" fill="url(#paint0_linear_108_4812)"/>
<path d="M26.7969 14.16H27.7969V13.16H26.7969V14.16ZM26.7969 15.42V16.42H27.7969V15.42H26.7969ZM17.5569 9.1C15.3182 9.1 13.5169 7.24676 13.5169 5.06H11.5169C11.5169 8.33324 14.1956 11.1 17.5569 11.1V9.1ZM13.5169 5.06C13.5169 2.81228 15.3092 1.02 17.5569 1.02V-0.980003C14.2046 -0.980003 11.5169 1.70771 11.5169 5.06H13.5169ZM17.5569 1.02C19.8046 1.02 21.5969 2.81228 21.5969 5.06H23.5969C23.5969 1.70771 20.9092 -0.980003 17.5569 -0.980003V1.02ZM21.5969 5.06C21.5969 7.24676 19.7956 9.1 17.5569 9.1V11.1C20.9182 11.1 23.5969 8.33324 23.5969 5.06H21.5969ZM21.4069 15.16H26.7969V13.16H21.4069V15.16ZM25.7969 14.16V15.42H27.7969V14.16H25.7969ZM26.7969 14.42C25.7684 14.42 24.8653 14.5655 24.1097 14.9434C23.3262 15.3351 22.7778 15.9382 22.412 16.704C22.0598 17.4414 21.8824 18.3169 21.7857 19.277C21.6884 20.2428 21.6669 21.3665 21.6669 22.63H23.6669C23.6669 21.3735 23.6891 20.3359 23.7756 19.4774C23.8626 18.6131 24.0089 18.0011 24.2167 17.566C24.411 17.1593 24.6588 16.9049 25.0041 16.7322C25.3772 16.5457 25.9353 16.42 26.7969 16.42V14.42ZM21.6669 22.63V58.33H23.6669V22.63H21.6669ZM21.6669 58.33C21.6669 62.2772 21.2689 65.436 19.8444 67.6078C18.4889 69.6744 16.0534 71.05 11.3969 71.05V73.05C16.4703 73.05 19.6698 71.5206 21.5168 68.7047C23.2948 65.994 23.6669 62.2928 23.6669 58.33H21.6669ZM11.3969 71.05C6.07269 71.05 4.1066 68.7052 3.74311 66.7887C3.33964 64.6613 4.65732 62.9 6.35687 62.9V60.9C3.01643 60.9 1.21911 64.2137 1.77814 67.1613C2.37715 70.3198 5.45106 73.05 11.3969 73.05V71.05ZM6.35687 62.9C6.95523 62.9 7.32548 63.004 7.55546 63.1238C7.77154 63.2363 7.91359 63.388 8.02057 63.5911C8.27259 64.0695 8.32349 64.7949 8.31441 65.8111C8.31029 66.2725 8.29539 66.8054 8.31194 67.2933C8.32861 67.7845 8.37803 68.3183 8.53271 68.8133C8.69145 69.3212 8.9763 69.8354 9.48977 70.2106C10.0008 70.5839 10.6292 70.74 11.3269 70.74V68.74C10.922 68.74 10.7455 68.6511 10.6697 68.5957C10.5964 68.5421 10.5126 68.4438 10.4417 68.2167C10.3667 67.9767 10.3253 67.653 10.3108 67.2255C10.2962 66.7946 10.3097 66.3475 10.3143 65.8289C10.3228 64.8851 10.3124 63.6505 9.79006 62.6589C9.50984 62.127 9.08643 61.6662 8.47946 61.35C7.88639 61.041 7.17602 60.9 6.35687 60.9V62.9ZM11.3269 70.74C12.0064 70.74 12.5508 70.4353 12.9144 69.9506C13.2377 69.5196 13.3867 68.991 13.4671 68.5288C13.6263 67.6131 13.5869 66.4517 13.5869 65.61H11.5869C11.5869 66.5883 11.6174 67.4919 11.4967 68.1862C11.437 68.529 11.3586 68.6917 11.3144 68.7506C11.3104 68.7559 11.3473 68.74 11.3269 68.74V70.74ZM13.5869 65.61V25.64H11.5869V65.61H13.5869ZM13.5869 25.64C13.5869 23.8543 13.5303 22.3412 13.5956 20.9702C13.6603 19.6116 13.8426 18.559 14.2449 17.7438C14.9682 16.278 16.6378 15.16 21.4069 15.16V13.16C16.446 13.16 13.7056 14.317 12.4514 16.8587C11.8649 18.0472 11.6666 19.4315 11.5979 20.8751C11.5297 22.3063 11.5869 23.9607 11.5869 25.64H13.5869ZM55.3459 42.65H54.3459V42.6606L54.3462 42.6713L55.3459 42.65ZM60.0359 48.74H61.0359V47.74H60.0359V48.74ZM60.0359 50V51H61.0359V50H60.0359ZM45.3359 38.31L44.3359 38.3044V38.31H45.3359ZM45.4059 25.85H46.4059L44.406 25.8444L45.4059 25.85ZM37.5659 38.66L38.54 38.8865L38.5421 38.8769L37.5659 38.66ZM43.7959 42.86H44.7959V41.1368L43.2998 41.9918L43.7959 42.86ZM43.7959 45.66L44.4187 46.4424L44.7959 46.1422V45.66H43.7959ZM30.8459 36.07L30.1602 35.3421L30.1584 35.3439L30.8459 36.07ZM45.4059 23.33L46.3879 23.5188L46.4059 23.4253V23.33H45.4059ZM36.9359 21.44L36.1833 22.0985L36.1885 22.1044L36.9359 21.44ZM29.7259 27.39L29.0526 28.1293L29.0557 28.1321L29.7259 27.39ZM39.3159 14.44L39.1336 13.4567L39.1266 13.4581L39.3159 14.44ZM54.3459 26.9V42.65H56.3459V26.9H54.3459ZM54.3462 42.6713C54.382 44.3547 54.6106 46.1067 55.4506 47.4569C56.35 48.9029 57.852 49.74 60.0359 49.74V47.74C58.4399 47.74 57.6319 47.1771 57.1488 46.4006C56.6062 45.5283 56.3799 44.2353 56.3457 42.6287L54.3462 42.6713ZM59.0359 48.74V50H61.0359V48.74H59.0359ZM60.0359 49H55.4159V51H60.0359V49ZM55.4159 49C51.2212 49 49.076 47.7334 47.9015 45.9644C46.6626 44.0983 46.3359 41.4461 46.3359 38.31H44.3359C44.3359 41.4739 44.6393 44.6667 46.2353 47.0706C47.8958 49.5716 50.7907 51 55.4159 51V49ZM46.3359 38.3156L46.4059 25.8556L44.406 25.8444L44.336 38.3044L46.3359 38.3156ZM44.4059 25.85C44.4059 27.8829 43.0392 29.5477 41.1747 31.5467C39.4264 33.421 37.2221 35.5976 36.5898 38.4431L38.5421 38.8769C39.0298 36.6824 40.7455 34.939 42.6372 32.9108C44.4127 31.0073 46.4059 28.7871 46.4059 25.85H44.4059ZM36.5919 38.4335C35.7543 42.0351 38.1462 44.77 41.1359 44.77V42.77C39.5056 42.77 37.9775 41.3049 38.5399 38.8865L36.5919 38.4335ZM41.1359 44.77C42.2492 44.77 43.2805 44.3063 44.2921 43.7282L43.2998 41.9918C42.3514 42.5337 41.7026 42.77 41.1359 42.77V44.77ZM42.7959 42.86V45.66H44.7959V42.86H42.7959ZM43.1732 44.8776C39.842 47.5289 37.0074 48.6477 34.7923 48.8249C32.6018 49.0001 30.9865 48.2629 29.9572 47.1045C27.8822 44.7692 27.8799 40.2558 31.5335 36.7961L30.1584 35.3439C25.902 39.3742 25.5147 45.1158 28.4622 48.433C29.9441 50.1008 32.192 51.0393 34.9518 50.8185C37.687 50.5998 40.8899 49.2511 44.4187 46.4424L43.1732 44.8776ZM31.5316 36.7979C32.673 35.7227 34.0611 34.7377 35.5559 33.7661C36.9942 32.8312 38.6668 31.8261 40.0976 30.8737C42.9782 28.9561 45.7753 26.7046 46.3879 23.5188L44.4239 23.1412C43.9866 25.4154 41.9187 27.2589 38.9893 29.2088C37.5151 30.1902 36.0465 31.0619 34.4659 32.0892C32.942 33.0798 31.4339 34.1423 30.1602 35.3421L31.5316 36.7979ZM46.4059 23.33C46.4059 21.5924 46.2381 19.7525 45.4258 18.3283C45.0063 17.5928 44.4147 16.9666 43.6043 16.5324C42.8008 16.102 41.8383 15.89 40.7159 15.89V17.89C41.5885 17.89 42.2098 18.0543 42.6598 18.2954C43.1028 18.5328 43.4343 18.8734 43.6885 19.3192C44.2237 20.2575 44.4059 21.6376 44.4059 23.33H46.4059ZM40.7159 15.89C40.0614 15.89 39.2753 15.9733 38.5068 16.1554C37.7477 16.3353 36.9376 16.6275 36.2833 17.0861C35.6216 17.5498 35.0246 18.2585 34.9633 19.2499C34.904 20.2088 35.3661 21.1645 36.1834 22.0985L37.6885 20.7815C37.0358 20.0355 36.9466 19.5824 36.9595 19.3732C36.9704 19.1965 37.069 18.9777 37.4311 18.7239C37.8006 18.465 38.3423 18.2497 38.9679 18.1015C39.5841 17.9555 40.2155 17.89 40.7159 17.89V15.89ZM36.1885 22.1044C37.1609 23.1983 37.404 24.1718 37.3163 24.9326C37.2267 25.709 36.7739 26.4304 36.0434 26.9713C34.56 28.0696 32.172 28.2518 30.3962 26.6479L29.0557 28.1321C31.6199 30.4482 35.0769 30.1754 37.2335 28.5787C38.3229 27.7721 39.1389 26.586 39.3031 25.1617C39.4691 23.722 38.951 22.2017 37.6833 20.7756L36.1885 22.1044ZM30.3993 26.6507C28.9081 25.2926 28.7319 23.1084 30.2141 20.8304C31.6978 18.5502 34.811 16.3272 39.5053 15.4219L39.1266 13.4581C34.0209 14.4428 30.379 16.9098 28.5378 19.7396C26.695 22.5716 26.6238 25.9174 29.0526 28.1293L30.3993 26.6507ZM39.4983 15.4232C43.6142 14.6598 47.3277 15.4537 49.9898 17.4304C52.635 19.3944 54.3459 22.6013 54.3459 26.9H56.3459C56.3459 22.0287 54.3819 18.2006 51.1821 15.8246C47.9992 13.4613 43.6977 12.6102 39.1336 13.4568L39.4983 15.4232ZM62.8277 50H61.8277V51H62.8277V50ZM62.8277 48.74V47.74H61.8277V48.74H62.8277ZM62.8277 15.42H61.8277V16.42H62.8277V15.42ZM62.8277 14.16V13.16H61.8277V14.16H62.8277ZM77.5277 19.62L76.5322 19.7139L76.7411 21.9284L78.2588 20.3023L77.5277 19.62ZM96.7777 20.25L95.8482 20.6186L96.4448 22.1233L97.5234 20.9163L96.7777 20.25ZM116.378 19.83L117.328 19.5187L117.325 19.5087L116.378 19.83ZM117.218 42.79L118.218 42.7683L118.217 42.7597L117.218 42.79ZM120.788 48.74H121.788V47.74H120.788V48.74ZM120.788 50V51H121.788V50H120.788ZM106.718 21.3L107.679 21.0253L107.673 21.0044L107.666 20.9838L106.718 21.3ZM97.3377 23.4L96.5377 22.8L96.3377 23.0667V23.4H97.3377ZM101.118 48.74H102.118V47.796L101.175 47.7417L101.118 48.74ZM101.118 50V51H102.118V50H101.118ZM83.6877 50H82.6877V51H83.6877V50ZM83.6877 48.74L83.6493 47.7407L82.6877 47.7777V48.74H83.6877ZM86.8377 21.23L87.7965 20.9459L87.794 20.9374L87.7913 20.9289L86.8377 21.23ZM77.5977 23.4L76.7785 22.8265L76.5977 23.0848V23.4H77.5977ZM76.5977 38.52C76.5977 41.6158 76.2544 44.2091 74.9985 46.0281C73.8033 47.7594 71.6205 49 67.3777 49V51C72.0249 51 74.9521 49.6156 76.6444 47.1644C78.2761 44.8009 78.5977 41.6542 78.5977 38.52H76.5977ZM67.3777 49H62.8277V51H67.3777V49ZM63.8277 50V48.74H61.8277V50H63.8277ZM62.8277 49.74C64.9991 49.74 66.5052 48.9301 67.4017 47.505C68.2399 46.1724 68.4477 44.4466 68.4477 42.79H66.4477C66.4477 44.3534 66.2356 45.6026 65.7088 46.44C65.2402 47.1849 64.4364 47.74 62.8277 47.74V49.74ZM68.4477 42.79V21.37H66.4477V42.79H68.4477ZM68.4477 21.37C68.4477 19.7134 68.2399 17.9876 67.4017 16.655C66.5052 15.2299 64.9991 14.42 62.8277 14.42V16.42C64.4364 16.42 65.2402 16.9751 65.7088 17.72C66.2356 18.5574 66.4477 19.8066 66.4477 21.37H68.4477ZM63.8277 15.42V14.16H61.8277V15.42H63.8277ZM62.8277 15.16H69.2677V13.16H62.8277V15.16ZM69.2677 15.16C72.4155 15.16 74.1111 15.6042 75.0626 16.3042C75.9435 16.9523 76.3668 17.961 76.5322 19.7139L78.5233 19.5261C78.3387 17.569 77.8169 15.8477 76.2478 14.6933C74.7494 13.5908 72.4899 13.16 69.2677 13.16V15.16ZM78.2588 20.3023C81.1433 17.2118 83.8336 15.16 87.8877 15.16V13.16C82.9818 13.16 79.7922 15.7282 76.7967 18.9377L78.2588 20.3023ZM87.8877 15.16C89.9359 15.16 91.5459 15.6294 92.8145 16.5054C94.085 17.3826 95.0976 18.7259 95.8482 20.6186L97.7073 19.8814C96.8479 17.7141 95.6205 16.0124 93.9509 14.8596C92.2796 13.7056 90.2496 13.16 87.8877 13.16V15.16ZM97.5234 20.9163C100.412 17.6835 103.659 15.16 107.908 15.16V13.16C102.776 13.16 99.0231 16.2365 96.0321 19.5837L97.5234 20.9163ZM107.908 15.16C109.76 15.16 111.346 15.566 112.602 16.3678C113.847 17.1626 114.832 18.3874 115.431 20.1513L117.325 19.5087C116.593 17.3526 115.339 15.7424 113.678 14.6822C112.029 13.6289 110.045 13.16 107.908 13.16V15.16ZM115.427 20.1413C115.719 21.0307 115.919 22.4344 116.043 24.2248C116.165 25.9938 116.209 28.0618 116.218 30.2378C116.235 34.5506 116.113 39.344 116.218 42.8203L118.217 42.7597C118.113 39.306 118.235 34.6493 118.218 30.2297C118.209 28.0395 118.165 25.9206 118.038 24.0867C117.913 22.2743 117.702 20.6593 117.328 19.5187L115.427 20.1413ZM116.218 42.8117C116.235 43.5771 116.231 44.4048 116.275 45.1382C116.32 45.8795 116.417 46.6424 116.676 47.3269C116.945 48.0361 117.394 48.6754 118.128 49.1188C118.841 49.5505 119.731 49.74 120.788 49.74V47.74C119.954 47.74 119.462 47.5883 119.163 47.4074C118.883 47.2384 118.689 46.9939 118.547 46.6181C118.395 46.2176 118.312 45.6943 118.272 45.018C118.231 44.334 118.236 43.6129 118.218 42.7683L116.218 42.8117ZM119.788 48.74V50H121.788V48.74H119.788ZM120.788 49H116.238V51H120.788V49ZM116.238 49C111.994 49 110.127 47.7639 109.19 46.1044C108.162 44.2844 108.068 41.7 108.068 38.52H106.068C106.068 41.57 106.114 44.7256 107.448 47.0881C108.873 49.6111 111.592 51 116.238 51V49ZM108.068 38.52C108.068 37.0143 108.12 33.1504 108.103 29.4852C108.094 27.6437 108.068 25.8274 108.008 24.3441C107.978 23.603 107.939 22.9359 107.889 22.3858C107.841 21.8571 107.778 21.3692 107.679 21.0253L105.756 21.5747C105.798 21.7207 105.85 22.0423 105.898 22.5668C105.943 23.07 105.98 23.7001 106.009 24.4246C106.068 25.8726 106.094 27.6613 106.103 29.4948C106.12 33.1796 106.068 36.9457 106.068 38.52H108.068ZM107.666 20.9838C107.387 20.1453 106.959 19.3552 106.291 18.7712C105.604 18.1698 104.734 17.85 103.708 17.85V19.85C104.291 19.85 104.681 20.0202 104.974 20.2763C105.287 20.5498 105.559 20.9847 105.769 21.6162L107.666 20.9838ZM103.708 17.85C102.047 17.85 100.601 18.656 99.4382 19.6202C98.2692 20.5896 97.2852 21.8034 96.5377 22.8L98.1377 24C98.8603 23.0366 99.7312 21.9754 100.715 21.1598C101.705 20.339 102.708 19.85 103.708 19.85V17.85ZM96.3377 23.4V42.72H98.3377V23.4H96.3377ZM96.3377 42.72C96.3377 43.6783 96.3459 44.5682 96.4211 45.351C96.4961 46.1314 96.6435 46.881 96.9652 47.5359C97.3002 48.218 97.8078 48.7632 98.5296 49.1391C99.226 49.5018 100.072 49.6813 101.06 49.7383L101.175 47.7417C100.343 47.6937 99.807 47.5494 99.4534 47.3653C99.1252 47.1943 98.9152 46.9695 98.7603 46.6541C98.592 46.3115 98.4769 45.8361 98.4119 45.1597C98.3471 44.4855 98.3377 43.6867 98.3377 42.72H96.3377ZM100.118 48.74V50H102.118V48.74H100.118ZM101.118 49H83.6877V51H101.118V49ZM84.6877 50V48.74H82.6877V50H84.6877ZM83.7262 49.7393C84.76 49.6995 85.6279 49.4671 86.3224 49.0072C87.028 48.5399 87.4681 47.895 87.7372 47.1885C87.9994 46.5003 88.1044 45.7418 88.1508 45.0029C88.197 44.2651 88.1877 43.4701 88.1877 42.72H86.1877C86.1877 43.5099 86.1959 44.2199 86.1547 44.8777C86.1135 45.5344 86.0261 46.0622 85.8682 46.4765C85.7174 46.8725 85.51 47.1464 85.2181 47.3397C84.915 47.5404 84.4354 47.7105 83.6493 47.7407L83.7262 49.7393ZM88.1877 42.72C88.1877 41.2427 88.2402 36.303 88.2227 31.5513C88.214 29.1684 88.1877 26.8124 88.1282 24.9303C88.0984 23.99 88.0602 23.159 88.0108 22.4981C87.9642 21.8745 87.9019 21.3016 87.7965 20.9459L85.8789 21.5141C85.9136 21.6309 85.9672 21.9898 86.0163 22.6471C86.0626 23.2669 86.0998 24.0656 86.1292 24.9935C86.1878 26.8476 86.214 29.1816 86.2227 31.5587C86.2403 36.327 86.1877 41.1873 86.1877 42.72H88.1877ZM87.7913 20.9289C87.2821 19.3163 85.8594 17.78 83.8277 17.78V19.78C84.7361 19.78 85.5534 20.4837 85.8842 21.5311L87.7913 20.9289ZM83.8277 17.78C82.1043 17.78 80.6898 18.5611 79.5568 19.5487C78.4333 20.5282 77.5165 21.7722 76.7785 22.8265L78.417 23.9735C79.1489 22.9278 79.9471 21.8618 80.8711 21.0563C81.7857 20.2589 82.7511 19.78 83.8277 19.78V17.78ZM76.5977 23.4V38.52H78.5977V23.4H76.5977ZM146.839 46.43L146.224 45.6414L146.217 45.6472L146.209 45.6532L146.839 46.43ZM148.029 20.53L147.2 21.0891L147.202 21.0912L148.029 20.53ZM139.839 20.32H138.839V22.4824L140.487 21.0819L139.839 20.32ZM139.839 17.24L139.215 16.4591L138.839 16.7594V17.24H139.839ZM137.039 47.9L137.585 47.0621L136.922 46.6303L136.35 47.1759L137.039 47.9ZM123.599 50.07H122.599V51.07H123.599V50.07ZM123.599 48.81V47.81H122.599V48.81H123.599ZM128.289 42.86L129.289 42.8817L129.289 42.8709V42.86H128.289ZM124.299 1.28H123.299V2.24667L124.265 2.27942L124.299 1.28ZM124.299 0.0199968V-0.980003H123.299V0.0199968H124.299ZM137.229 41.39C137.229 44.7348 138.977 46.8777 141.167 47.821C143.27 48.7263 145.832 48.5341 147.469 47.2068L146.209 45.6532C145.256 46.4259 143.514 46.6537 141.958 45.984C140.492 45.3523 139.229 43.9252 139.229 41.39H137.229ZM147.454 47.2186C148.144 46.6809 148.676 45.8825 149.096 44.9864C149.521 44.0797 149.863 43.0029 150.135 41.8316C150.679 39.4887 150.966 36.6669 151.033 33.8449C151.099 31.0196 150.946 28.1567 150.595 25.7234C150.251 23.3437 149.696 21.2066 148.857 19.9688L147.202 21.0912C147.762 21.9184 148.275 23.6488 148.616 26.0094C148.949 28.3165 149.098 31.0666 149.033 33.7976C148.969 36.5319 148.691 39.2095 148.187 41.3793C147.935 42.4644 147.632 43.3974 147.285 44.1376C146.934 44.8885 146.567 45.3741 146.224 45.6414L147.454 47.2186ZM148.858 19.9709C147.666 18.2029 146.009 17.3711 144.205 17.4039C142.459 17.4357 140.704 18.2722 139.192 19.5581L140.487 21.0819C141.774 19.9878 143.1 19.4243 144.241 19.4036C145.325 19.3839 146.363 19.8471 147.2 21.0891L148.858 19.9709ZM140.839 20.32V17.24H138.839V20.32H140.839ZM140.464 18.0209C144.7 14.6319 149.455 14.5441 153.155 16.8386C156.882 19.1502 159.699 23.9895 159.699 30.75H161.699C161.699 23.4405 158.636 17.8848 154.209 15.1389C149.754 12.3759 144.078 12.5681 139.215 16.4591L140.464 18.0209ZM159.699 30.75C159.699 46.586 146.014 52.5539 137.585 47.0621L136.493 48.7379C146.544 55.2861 161.699 47.814 161.699 30.75H159.699ZM136.35 47.1759C135.157 48.312 133.024 49.07 129.269 49.07V51.07C133.214 51.07 135.982 50.288 137.729 48.6241L136.35 47.1759ZM129.269 49.07H123.599V51.07H129.269V49.07ZM124.599 50.07V48.81H122.599V50.07H124.599ZM123.599 49.81C125.801 49.81 127.31 49.0035 128.208 47.575C129.044 46.2458 129.253 44.5215 129.289 42.8817L127.289 42.8383C127.255 44.4185 127.044 45.6692 126.515 46.51C126.049 47.2515 125.248 47.81 123.599 47.81V49.81ZM129.289 42.86V7.02H127.289V42.86H129.289ZM129.289 7.02C129.289 6.15039 129.299 5.30453 129.244 4.5629C129.189 3.82034 129.064 3.07644 128.739 2.41977C128.012 0.953384 126.534 0.35519 124.333 0.280571L124.265 2.27942C126.194 2.34481 126.711 2.83161 126.947 3.30773C127.103 3.62231 127.201 4.06403 127.249 4.71053C127.297 5.35797 127.289 6.10461 127.289 7.02H129.289ZM125.299 1.28V0.0199968H123.299V1.28H125.299ZM124.299 1.02H130.389V-0.980003H124.299V1.02ZM130.389 1.02C134.177 1.02 137.229 4.07228 137.229 7.86H139.229C139.229 2.96771 135.282 -0.980003 130.389 -0.980003V1.02ZM137.229 7.86V41.39H139.229V7.86H137.229ZM180.111 15.16C188.654 15.16 195.701 22.6843 195.701 32.15H197.701C197.701 21.7357 189.908 13.16 180.111 13.16V15.16ZM195.701 32.15C195.701 41.5431 188.656 49.07 180.111 49.07V51.07C189.906 51.07 197.701 42.4969 197.701 32.15H195.701ZM180.111 49.07C171.566 49.07 164.521 41.5431 164.521 32.15H162.521C162.521 42.4969 170.316 51.07 180.111 51.07V49.07ZM164.521 32.15C164.521 22.6843 171.568 15.16 180.111 15.16V13.16C170.314 13.16 162.521 21.7357 162.521 32.15H164.521ZM180.111 48.48C181.358 48.48 182.463 47.8881 183.376 46.9883C184.286 46.0929 185.058 44.8467 185.685 43.3855C186.94 40.4597 187.691 36.487 187.691 32.15H185.691C185.691 36.283 184.972 39.9753 183.847 42.597C183.284 43.9096 182.639 44.9077 181.973 45.5633C181.312 46.2144 180.684 46.48 180.111 46.48V48.48ZM187.691 32.15C187.691 27.7789 186.941 23.789 185.686 20.8543C185.059 19.3887 184.286 18.14 183.377 17.2433C182.463 16.342 181.358 15.75 180.111 15.75V17.75C180.684 17.75 181.312 18.0155 181.973 18.6673C182.638 19.3237 183.283 20.3238 183.847 21.6407C184.972 24.271 185.691 27.9811 185.691 32.15H187.691ZM180.111 15.75C178.864 15.75 177.759 16.342 176.845 17.2433C175.936 18.14 175.163 19.3887 174.537 20.8543C173.282 23.789 172.531 27.7789 172.531 32.15H174.531C174.531 27.9811 175.251 24.271 176.376 21.6407C176.939 20.3238 177.584 19.3237 178.249 18.6673C178.911 18.0155 179.538 17.75 180.111 17.75V15.75ZM172.531 32.15C172.531 36.487 173.282 40.4597 174.537 43.3855C175.164 44.8467 175.936 46.0929 176.846 46.9883C177.759 47.8881 178.864 48.48 180.111 48.48V46.48C179.538 46.48 178.91 46.2144 178.249 45.5633C177.583 44.9077 176.938 43.9096 176.375 42.597C175.25 39.9753 174.531 36.283 174.531 32.15H172.531ZM196.675 50.07H195.675V51.07H196.675V50.07ZM196.675 48.81V47.81H195.675V48.81H196.675ZM196.675 15.42H195.675V16.42H196.675V15.42ZM196.675 14.16V13.16H195.675V14.16H196.675ZM210.955 22.84H209.955V26.3448L211.805 23.3677L210.955 22.84ZM214.315 22L213.67 21.2359L213.662 21.2432L214.315 22ZM209.955 38.8C209.955 40.582 210.007 42.0848 209.936 43.4316C209.865 44.7679 209.676 45.7897 209.27 46.5754C208.538 47.9947 206.852 49.07 202.065 49.07V51.07C207.009 51.07 209.767 49.9753 211.048 47.4921C211.649 46.3265 211.858 44.964 211.933 43.5375C212.008 42.1215 211.955 40.483 211.955 38.8H209.955ZM202.065 49.07H196.675V51.07H202.065V49.07ZM197.675 50.07V48.81H195.675V50.07H197.675ZM196.675 49.81C197.726 49.81 198.626 49.6357 199.374 49.2504C200.137 48.8569 200.677 48.2757 201.043 47.577C201.735 46.2586 201.805 44.5052 201.805 42.79H199.805C199.805 44.5748 199.701 45.8314 199.272 46.648C199.079 47.0168 198.823 47.2844 198.457 47.4727C198.076 47.6693 197.515 47.81 196.675 47.81V49.81ZM201.805 42.79V21.44H199.805V42.79H201.805ZM201.805 21.44C201.805 19.7248 201.735 17.9714 201.043 16.6529C200.677 15.9543 200.137 15.3731 199.374 14.9796C198.626 14.5942 197.726 14.42 196.675 14.42V16.42C197.515 16.42 198.076 16.5607 198.457 16.7573C198.823 16.9456 199.079 17.2132 199.272 17.582C199.701 18.3986 199.805 19.6552 199.805 21.44H201.805ZM197.675 15.42V14.16H195.675V15.42H197.675ZM196.675 15.16H202.065V13.16H196.675V15.16ZM202.065 15.16C206.118 15.16 207.93 15.9951 208.823 17.1252C209.767 18.3183 209.955 20.1296 209.955 22.84H211.955C211.955 20.2304 211.829 17.7017 210.392 15.8848C208.906 14.0049 206.273 13.16 202.065 13.16V15.16ZM211.805 23.3677C213.227 21.0776 214.709 19.0028 216.347 17.5054C217.973 16.0179 219.686 15.16 221.595 15.16V13.16C219.025 13.16 216.853 14.3321 214.997 16.0296C213.151 17.7172 211.553 19.9824 210.106 22.3123L211.805 23.3677ZM221.595 15.16C222.879 15.16 223.718 15.648 224.254 16.3236C224.814 17.0292 225.103 18.0213 225.084 19.0773C225.066 20.1333 224.739 21.1555 224.191 21.8887C223.657 22.6019 222.931 23.03 222.015 23.03V25.03C223.655 25.03 224.941 24.2244 225.792 23.0869C226.628 21.9695 227.059 20.5242 227.084 19.1127C227.109 17.7012 226.729 16.2258 225.821 15.0808C224.889 13.9057 223.462 13.16 221.595 13.16V15.16ZM222.015 23.03C220.416 23.03 219.574 22.1596 218.458 21.2444C217.948 20.8256 217.264 20.3053 216.394 20.202C215.46 20.091 214.57 20.4758 213.67 21.236L214.961 22.764C215.635 22.1942 215.988 22.1677 216.159 22.188C216.393 22.2159 216.677 22.3694 217.19 22.7906C218.122 23.5554 219.555 25.03 222.015 25.03V23.03ZM213.662 21.2432C212.717 22.059 212.046 23.227 211.555 24.5282C211.062 25.8375 210.724 27.3533 210.491 28.9422C210.025 32.1178 209.955 35.716 209.955 38.8H211.955C211.955 35.724 212.026 32.2522 212.47 29.2328C212.691 27.7242 213.002 26.3612 213.427 25.2337C213.855 24.098 214.374 23.271 214.969 22.7568L213.662 21.2432ZM246.632 44.26L246.59 45.2591L246.598 45.2595L246.606 45.2597L246.632 44.26ZM255.522 40.55L256.11 39.7413L255.387 39.2155L254.784 39.8752L255.522 40.55ZM256.292 41.11L257.174 41.5802L257.583 40.8127L256.88 40.3013L256.292 41.11ZM251.112 16.96L250.431 17.6923L250.433 17.6946L251.112 16.96ZM240.752 38.17L239.874 38.6489L240.915 40.5568L241.687 38.5252L240.752 38.17ZM239.632 35.79L238.703 35.4186L238.552 35.7977L238.709 36.1746L239.632 35.79ZM244.322 20.04L245.303 19.8457L245.302 19.8439L244.322 20.04ZM246.606 45.2597C248.128 45.2987 249.924 44.9504 251.627 44.2806C253.33 43.6103 255.012 42.5899 256.26 41.2248L254.784 39.8752C253.792 40.9601 252.394 41.8297 250.895 42.4194C249.394 43.0096 247.866 43.2913 246.658 43.2603L246.606 45.2597ZM254.934 41.3587L255.704 41.9187L256.88 40.3013L256.11 39.7413L254.934 41.3587ZM255.409 40.6398C251.638 47.7198 244.739 50.0899 238.813 48.5677C232.906 47.0504 227.822 41.6207 227.822 32.71H225.822C225.822 42.4893 231.482 48.7496 238.316 50.5048C245.129 52.2551 252.966 49.4802 257.174 41.5802L255.409 40.6398ZM227.822 32.71C227.822 15.6621 244.172 11.8717 250.431 17.6923L251.793 16.2277C244.052 9.02828 225.822 14.1979 225.822 32.71H227.822ZM250.433 17.6946C253.072 20.1314 253.7 21.9891 253.512 23.4433C253.314 24.9722 252.179 26.4391 250.394 27.9918C249.52 28.7526 248.533 29.4973 247.504 30.2533C246.486 31.0012 245.416 31.768 244.423 32.5415C242.472 34.0623 240.591 35.7774 239.817 37.8148L241.687 38.5252C242.242 37.0626 243.695 35.6452 245.653 34.1188C246.615 33.3687 247.643 32.6333 248.689 31.865C249.723 31.1048 250.766 30.3192 251.707 29.5007C253.553 27.8946 255.197 26.0059 255.495 23.7001C255.804 21.3197 254.647 18.8636 251.79 16.2254L250.433 17.6946ZM241.63 37.6911C241.232 36.9628 240.897 36.2274 240.555 35.4054L238.709 36.1746C239.066 37.0326 239.431 37.8372 239.874 38.6489L241.63 37.6911ZM240.56 36.1614C240.986 35.0981 241.564 34.0651 242.206 32.9523C242.837 31.8568 243.531 30.6816 244.118 29.4109C245.314 26.8257 246.088 23.8092 245.303 19.8457L243.341 20.2343C244.026 23.6908 243.365 26.2743 242.303 28.5716C241.762 29.7422 241.121 30.8288 240.473 31.9536C239.835 33.0611 239.188 34.2069 238.703 35.4186L240.56 36.1614ZM245.302 19.8439C245.125 18.9555 244.865 17.9704 244.289 17.2068C243.655 16.3656 242.717 15.89 241.452 15.89V17.89C242.146 17.89 242.469 18.1144 242.692 18.4107C242.974 18.7846 243.169 19.3745 243.341 20.2361L245.302 19.8439ZM241.452 15.89C238.846 15.89 237.273 18.2018 236.463 20.8002C235.624 23.4947 235.407 27.0163 235.803 30.5041C236.199 33.9929 237.221 37.5558 238.952 40.3089C240.688 43.0718 243.215 45.1185 246.59 45.2591L246.674 43.2609C244.169 43.1565 242.163 41.6595 240.645 39.2445C239.12 36.8198 238.164 33.5708 237.79 30.2784C237.417 26.9849 237.637 23.7559 238.373 21.3951C239.138 18.9382 240.278 17.89 241.452 17.89V15.89ZM278.898 44.26L278.856 45.2591L278.864 45.2595L278.872 45.2597L278.898 44.26ZM287.788 40.55L288.376 39.7413L287.653 39.2155L287.049 39.8752L287.788 40.55ZM288.558 41.11L289.44 41.5802L289.849 40.8127L289.146 40.3013L288.558 41.11ZM283.378 16.96L282.696 17.6923L282.699 17.6946L283.378 16.96ZM273.018 38.17L272.14 38.6489L273.18 40.5568L273.952 38.5252L273.018 38.17ZM271.898 35.79L270.969 35.4186L270.817 35.7977L270.974 36.1746L271.898 35.79ZM276.588 20.04L277.568 19.8457L277.568 19.8439L276.588 20.04ZM278.872 45.2597C280.394 45.2987 282.19 44.9504 283.892 44.2806C285.596 43.6103 287.277 42.5899 288.526 41.2248L287.049 39.8752C286.058 40.9601 284.659 41.8297 283.16 42.4194C281.66 43.0096 280.131 43.2913 278.923 43.2603L278.872 45.2597ZM287.199 41.3587L287.969 41.9187L289.146 40.3013L288.376 39.7413L287.199 41.3587ZM287.675 40.6398C283.903 47.7198 277.005 50.0899 271.079 48.5677C265.172 47.0504 260.088 41.6207 260.088 32.71H258.088C258.088 42.4893 263.748 48.7496 270.581 50.5048C277.395 52.2551 285.232 49.4802 289.44 41.5802L287.675 40.6398ZM260.088 32.71C260.088 15.6621 276.438 11.8717 282.696 17.6923L284.059 16.2277C276.317 9.02828 258.088 14.1979 258.088 32.71H260.088ZM282.699 17.6946C285.337 20.1314 285.966 21.9891 285.778 23.4433C285.58 24.9722 284.445 26.4391 282.66 27.9918C281.785 28.7526 280.799 29.4973 279.77 30.2533C278.752 31.0012 277.681 31.768 276.689 32.5415C274.738 34.0623 272.857 35.7774 272.083 37.8148L273.952 38.5252C274.508 37.0626 275.961 35.6452 277.919 34.1188C278.881 33.3687 279.909 32.6333 280.954 31.865C281.989 31.1048 283.032 30.3192 283.973 29.5007C285.819 27.8946 287.462 26.0059 287.761 23.7001C288.069 21.3197 286.913 18.8636 284.056 16.2254L282.699 17.6946ZM273.895 37.6911C273.498 36.9628 273.163 36.2274 272.821 35.4054L270.974 36.1746C271.332 37.0326 271.697 37.8372 272.14 38.6489L273.895 37.6911ZM272.826 36.1614C273.251 35.0981 273.83 34.0651 274.471 32.9523C275.103 31.8568 275.796 30.6816 276.384 29.4109C277.579 26.8257 278.354 23.8092 277.568 19.8457L275.607 20.2343C276.291 23.6908 275.631 26.2743 274.569 28.5716C274.027 29.7422 273.387 30.8288 272.738 31.9536C272.1 33.0611 271.454 34.2069 270.969 35.4186L272.826 36.1614ZM277.568 19.8439C277.39 18.9555 277.13 17.9704 276.555 17.2068C275.921 16.3656 274.983 15.89 273.718 15.89V17.89C274.412 17.89 274.734 18.1144 274.958 18.4107C275.24 18.7846 275.435 19.3745 275.607 20.2361L277.568 19.8439ZM273.718 15.89C271.112 15.89 269.539 18.2018 268.729 20.8002C267.89 23.4947 267.673 27.0163 268.069 30.5041C268.465 33.9929 269.486 37.5558 271.217 40.3089C272.954 43.0718 275.48 45.1185 278.856 45.2591L278.939 43.2609C276.435 43.1565 274.429 41.6595 272.91 39.2445C271.386 36.8198 270.43 33.5708 270.056 30.2784C269.682 26.9849 269.903 23.7559 270.638 21.3951C271.404 18.9382 272.543 17.89 273.718 17.89V15.89Z" fill="url(#paint1_linear_108_4812)"/>
<defs>
<linearGradient id="paint0_linear_108_4812" x1="150.5" y1="-8" x2="150.5" y2="62" gradientUnits="userSpaceOnUse">
<stop stop-color="#46535E"/>
<stop offset="1" stop-color="#232C33" stop-opacity="0"/>
</linearGradient>
<linearGradient id="paint1_linear_108_4812" x1="150.5" y1="-8" x2="150.5" y2="62" gradientUnits="userSpaceOnUse">
<stop offset="0.0189393" stop-color="#E3DEDE"/>
<stop offset="0.862689" stop-color="#3D50DF"/>
</linearGradient>
</defs>
</svg>
