<svg width="22" height="22" viewBox="0 0 22 22" fill="none" xmlns="http://www.w3.org/2000/svg">
<path fill-rule="evenodd" clip-rule="evenodd" d="M11 5.5C5 5.5 2.75 11 2.75 11C2.75 11 5 16.5 11 16.5C15.5 16.5 19.25 11 19.25 11C19.25 11 15.5 5.5 11 5.5ZM8.25 11C8.25 12.5188 9.48122 13.75 11 13.75C12.5188 13.75 13.75 12.5188 13.75 11C13.75 9.48122 12.5188 8.25 11 8.25C9.48122 8.25 8.25 9.48122 8.25 11Z" fill="#ADAFBB"/>
<path fill-rule="evenodd" clip-rule="evenodd" d="M13.2964 5.95362C12.5653 5.67137 11.7943 5.5 11 5.5C5 5.5 2.75 11 2.75 11C2.75 11 3.43756 12.6807 5.06606 14.1839L8.25 11C8.25 9.48122 9.48122 8.25 11 8.25L13.2964 5.95362Z" fill="#ADAFBB"/>
</svg>
