<svg width="22" height="22" viewBox="0 0 22 22" fill="none" xmlns="http://www.w3.org/2000/svg">
<path fillRule="evenodd" clipRule="evenodd" d="M10.1709 16.464C10.4389 16.4876 10.7153 16.5 11 16.5C15.5 16.5 19.25 11 19.25 11C19.25 11 18.6362 10.0997 17.6072 9.02766L10.1709 16.464Z" fill="#ADAFBB"/>
<path fillRule="evenodd" clipRule="evenodd" d="M13.2964 5.95362C12.5653 5.67137 11.7943 5.5 11 5.5C5 5.5 2.75 11 2.75 11C2.75 11 3.43756 12.6807 5.06606 14.1839L8.25 11C8.25 9.48122 9.48122 8.25 11 8.25L13.2964 5.95362Z" fill="#ADAFBB"/>
<rect opacity="0.3" x="4.6748" y="16.8988" width="17.4167" height="1.83333" transform="rotate(-45 4.6748 16.8988)" fill="#979797"/>
</svg>
